<svg width="16" height="16" viewBox="0 0 16 16" fill="none" xmlns="http://www.w3.org/2000/svg">
<path d="M14.829 14.0041C14.9383 14.1135 14.9998 14.2619 14.9998 14.4165C14.9998 14.5712 14.9383 14.7196 14.829 14.829C14.7196 14.9383 14.5712 14.9998 14.4165 14.9998C14.2619 14.9998 14.1135 14.9383 14.0041 14.829L14.829 14.0041ZM14.829 14.0041L8.96613 8.1413L14.829 14.0041ZM13.8627 1.02935L13.8627 1.02937L7.99988 6.8922L2.13705 1.02937L2.13703 1.02935C1.99013 0.882497 1.79092 0.8 1.58321 0.8C1.3755 0.8 1.17629 0.882497 1.02939 1.02935L1.17079 1.17079L1.02935 1.02939C0.882497 1.17629 0.8 1.3755 0.8 1.58321C0.8 1.79092 0.882497 1.99013 1.02935 2.13703L1.02937 2.13705L6.8922 7.99988L1.02937 13.8627L1.02935 13.8627C0.882497 14.0096 0.8 14.2088 0.8 14.4165C0.8 14.6243 0.882497 14.8235 1.02935 14.9704L1.17079 14.829L1.02939 14.9704C1.17629 15.1173 1.3755 15.1997 1.58321 15.1997C1.79092 15.1997 1.99013 15.1173 2.13703 14.9704L2.13705 14.9704L7.99988 9.10755L13.8627 14.9704L13.8627 14.9704C14.0096 15.1173 14.2088 15.1997 14.4165 15.1997C14.6243 15.1997 14.8235 15.1173 14.9704 14.9704L14.9704 14.9704C15.1173 14.8235 15.1997 14.6243 15.1997 14.4165C15.1997 14.2088 15.1173 14.0096 14.9704 13.8627L14.9704 13.8627L9.10755 7.99988L14.9704 2.13705L14.9704 2.13703C15.1173 1.99013 15.1997 1.79092 15.1997 1.58321C15.1997 1.3755 15.1173 1.17629 14.9704 1.02939L14.829 1.17079L14.9704 1.02935C14.8235 0.882497 14.6243 0.8 14.4165 0.8C14.2088 0.8 14.0096 0.882497 13.8627 1.02935ZM7.99988 8.82471L7.85845 8.96613H8.1413L7.99988 8.82471Z" fill="currentColor" stroke="currentColor" stroke-width="0.4"/>
</svg>
