<svg width="18" height="19" viewBox="0 0 18 19" fill="none" xmlns="http://www.w3.org/2000/svg">
<path fill-rule="evenodd" clip-rule="evenodd" d="M1.15998 0.466797H17.2693C17.672 0.466797 18.0015 0.804297 18.0015 1.2168V17.7168C18.0015 18.1293 17.672 18.4668 17.2693 18.4668H1.15998C0.757243 18.4668 0.427734 18.1293 0.427734 17.7168V1.2168C0.427734 0.804297 0.757243 0.466797 1.15998 0.466797ZM3.02695 15.8043H5.6264V7.2168H3.02695V15.8043ZM4.34572 6.05351C3.50364 6.05351 2.84462 5.37851 2.84462 4.51601C2.84462 3.65351 3.50364 2.97852 4.34572 2.97852C5.18779 2.97852 5.84681 3.65351 5.84681 4.51601C5.84681 5.34101 5.18779 6.05351 4.34572 6.05351ZM12.8019 15.8047H15.3647V11.0797C15.3647 8.75469 14.8888 6.99219 12.2527 6.99219C11.0079 6.99219 10.1292 7.70469 9.7997 8.37969H9.76308V7.21719H7.27346V15.8047H9.87292V11.5672C9.87292 10.4422 10.0926 9.35469 11.4472 9.35469C12.8019 9.35469 12.8019 10.6297 12.8019 11.6422V15.8047Z" fill="currentColor"/>
</svg>
