<svg width="17" height="16" viewBox="0 0 17 16" fill="none" xmlns="http://www.w3.org/2000/svg">
<path d="M16.9588 2.20649C16.3364 2.51577 15.6794 2.70906 14.9878 2.82504C15.6794 2.36113 16.2327 1.62659 16.4747 0.737415C15.8177 1.16267 15.0916 1.47195 14.2963 1.66525C13.6739 0.930714 12.7748 0.466797 11.8067 0.466797C9.93945 0.466797 8.41801 2.16783 8.41801 4.25546C8.41801 4.56473 8.45259 4.83535 8.52175 5.10597C5.72093 4.95133 3.19673 3.4436 1.5024 1.12401C1.22578 1.70391 1.05289 2.32247 1.05289 3.01834C1.05289 4.33278 1.64072 5.49257 2.57432 6.18845C2.02107 6.14979 1.5024 5.99515 1.01831 5.72453V5.76319C1.01831 7.61886 2.19396 9.16525 3.74998 9.51319C3.47335 9.59051 3.16215 9.62917 2.85095 9.62917C2.64348 9.62917 2.40143 9.59051 2.19396 9.55185C2.64348 11.0596 3.88829 12.1807 5.37514 12.1807C4.19949 13.1859 2.74721 13.8044 1.15662 13.8044C0.879999 13.8044 0.603374 13.8044 0.361328 13.7658C1.88276 14.8482 3.64624 15.4668 5.58261 15.4668C11.8412 15.4668 15.2645 9.66783 15.2645 4.64205C15.2645 4.48742 15.2645 4.29412 15.2645 4.13948C15.9214 3.6369 16.5093 2.97968 16.9588 2.20649Z" fill="currentColor"/>
</svg>
