<svg width="18" height="19" viewBox="0 0 18 19" fill="none" xmlns="http://www.w3.org/2000/svg">
<path fill-rule="evenodd" clip-rule="evenodd" d="M5.58405 0.520797C6.52132 0.477297 6.82044 0.466797 9.20681 0.466797C11.5932 0.466797 11.8923 0.477297 12.8296 0.520797C14.2582 0.587547 15.5121 0.946047 16.519 1.9773C17.5262 3.00892 17.8758 4.29367 17.941 5.75617C17.9835 6.71617 17.9937 7.02255 17.9937 9.4668C17.9937 11.911 17.9835 12.2174 17.941 13.1774C17.8758 14.6407 17.5258 15.925 16.519 16.9563C15.5118 17.9879 14.2571 18.346 12.8296 18.4128C11.8923 18.4563 11.5932 18.4668 9.20681 18.4668C6.82044 18.4668 6.52132 18.4563 5.58405 18.4128C4.15545 18.346 2.90149 17.9875 1.89466 16.9563C0.887458 15.9247 0.537813 14.6399 0.472643 13.1774C0.430173 12.2174 0.419922 11.911 0.419922 9.4668C0.419922 7.02255 0.430173 6.71617 0.472643 5.75617C0.537813 4.29292 0.887824 3.00855 1.89466 1.9773C2.90185 0.945672 4.15618 0.587547 5.58405 0.520797ZM12.7578 2.14039C11.8312 2.09689 11.5533 2.08789 9.20717 2.08789C6.86107 2.08789 6.58318 2.09727 5.65653 2.14039C4.65666 2.18727 3.72854 2.39239 3.01461 3.12364C2.30067 3.85489 2.1004 4.80551 2.05464 5.82964C2.01217 6.77876 2.00338 7.06339 2.00338 9.46638C2.00338 11.8694 2.01253 12.154 2.05464 13.1031C2.1004 14.1273 2.30067 15.0779 3.01461 15.8091C3.72854 16.5404 4.65666 16.7455 5.65653 16.7924C6.58282 16.8359 6.8607 16.8449 9.20717 16.8449C11.5536 16.8449 11.8315 16.8355 12.7578 16.7924C13.7577 16.7455 14.6858 16.5404 15.3997 15.8091C16.1137 15.0779 16.3139 14.1273 16.3597 13.1031C16.4022 12.154 16.411 11.8694 16.411 9.46638C16.411 7.06339 16.4018 6.77876 16.3597 5.82964C16.3139 4.80551 16.1137 3.85489 15.3997 3.12364C14.6858 2.39239 13.7577 2.18727 12.7578 2.14039Z" fill="currentColor"/>
<path fill-rule="evenodd" clip-rule="evenodd" d="M5.21289 9.875C5.21289 7.38985 7.17967 5.375 9.60634 5.375C12.033 5.375 13.9998 7.38948 13.9998 9.875C13.9998 12.3605 12.033 14.375 9.60634 14.375C7.17967 14.375 5.21289 12.3602 5.21289 9.875ZM6.75419 9.87425C6.75419 11.4874 8.03115 12.7954 9.60615 12.7954C11.1811 12.7954 12.4581 11.4874 12.4581 9.87425C12.4581 8.26106 11.1811 6.95312 9.60615 6.95312C8.03115 6.95312 6.75419 8.26106 6.75419 9.87425Z" fill="currentColor"/>
<ellipse cx="13.6006" cy="4.96751" rx="1.19821" ry="1.22728" fill="currentColor"/>
</svg>
