<svg width="19" height="20" viewBox="0 0 19 20" fill="none" xmlns="http://www.w3.org/2000/svg">
<path d="M18.9622 10.0241C18.9614 4.9394 15.0983 0.745282 10.1713 0.480018C5.24436 0.214755 0.978234 3.9712 0.463392 9.02814C-0.051451 14.0851 3.36522 18.6723 8.23831 19.4668V12.7871H5.88369V10.0241H8.23831V7.91822C8.23831 5.52259 9.62314 4.19932 11.7413 4.19932C12.4369 4.20927 13.1308 4.27156 13.8176 4.38572V6.73833H12.6479C12.2441 6.68306 11.8378 6.82005 11.5438 7.11061C11.2498 7.40117 11.1 7.81376 11.1367 8.23186V10.0241H13.7092L13.2977 12.7871H11.1367V19.4668C15.644 18.7319 18.9629 14.7271 18.9622 10.0241Z" fill="currentColor"/>
</svg>
